<svg xmlns="http://www.w3.org/2000/svg" viewBox="0 0 422.694 422.694" width="512" height="512"><path d="M333.069 311.067a691.423 691.423 0 0 0 5.04-84 52.639 52.639 0 0 0 17.2-15.28c12.88-18.16 13.92-44.08 3.2-77.12a7.997 7.997 0 0 0-3.2-4.16l-5.36-3.6a120.64 120.64 0 0 0-28.8-81.76c-24-26.56-60.72-40-109.44-40s-85.52 13.76-109.44 40a120.64 120.64 0 0 0-28.8 81.76l-5.36 3.6a7.997 7.997 0 0 0-3.2 4.16c-18.56 57.2 2.16 81.84 19.84 92.24a591.1 591.1 0 0 0 4.56 84.4c-43.52 17.04-90.64 47.36-89.28 98.24a8 8 0 0 0 8 8h406.64a8 8 0 0 0 8-8c1.28-51.12-46.32-81.52-89.6-98.48zM85.007 207.001c-15.928-16.007-12.889-42.764-6.018-65.054l6.8-4.56a8 8 0 0 0 3.52-7.44 106.963 106.963 0 0 1 24.64-74.48c20.72-22.72 53.52-34.48 97.36-34.64 43.84-.16 76.64 11.92 97.44 34.88a106.963 106.963 0 0 1 24.64 74.48 8 8 0 0 0 3.52 7.44l6.88 4.56c8 26.64 7.6 46.88-1.84 60.24a35.054 35.054 0 0 1-4.4 5.04c-2.8-60.72-17.04-106.24-42.8-135.6a108.24 108.24 0 0 0-42.32-29.76h-.72a132.16 132.16 0 0 0-45.92-8.56 96.96 96.96 0 0 0-76.88 32.96c-30.498 34.49-41.155 90.65-43.902 140.494zm186.542 73.746l.08-.32a90.65 90.65 0 0 0 12.96-21.36 92.36 92.36 0 0 0 4.8-14.56l21.2-8.96a69.277 69.277 0 0 0 11.6-2.08 695.336 695.336 0 0 1-4.64 72 368.1 368.1 0 0 0-45.76-12.08v-11.36a7.52 7.52 0 0 0-.24-1.28zm-34.56-22.88a8.96 8.96 0 1 1-8.96-8.96 8.959 8.959 0 0 1 8.8 9.28l.16-.32zm-9.04-24.64l.08-.32c-13.785-.092-25.034 11.009-25.125 24.793s11.009 25.034 24.793 25.125c13.104.087 24.044-9.974 25.052-23.039l17.2-7.28c-14.08 33.04-48.48 45.68-58.48 48.72-43.84-24-66.56-48-65.68-71.36 1.44-37.28 61.12-64 67.92-67.2a92.322 92.322 0 0 0 36.48-26.4c20.56 37.52 28.8 69.84 24.88 96.64l-26.4 11.12a24.961 24.961 0 0 0-20.72-10.799zm-127.28-13.28l.32-.24c1.52-50.08 10.4-109.12 40-143.04a80.001 80.001 0 0 1 64.64-27.52 120.014 120.014 0 0 1 34.8 5.44 64.005 64.005 0 0 0 2.88 22.16c3.44 13.28 6.96 26.96 0 40v.56a7.957 7.957 0 0 0-.4.8c0 .72-6.08 17.2-35.44 29.92-12.64 5.44-75.76 35.12-77.52 81.2-.64 16.64 6.8 32.88 22.08 48.72a8 8 0 0 0-1.04 3.68v11.28a367.515 367.515 0 0 0-46.56 12.32 609.02 609.02 0 0 1-3.84-80.48 8.006 8.006 0 0 0 .08-4.8zm208.08-.56a8.004 8.004 0 0 0-2.88.64l-13.6 5.76c1.28-30.08-9.6-65.44-32.96-105.36a72.004 72.004 0 0 0 0-48c-1.04-3.84-2-8-2.56-11.12a92.856 92.856 0 0 1 26.24 20.8c24.56 28.08 37.76 73.12 39.28 134.4a51.433 51.433 0 0 1-13.52 2.88zm-105.44 181.92H16.269c6.32-60.08 104-85.2 134.56-91.68v14c0 18.16 22.08 32 52.48 34.32v43.36zm-36.48-77.6v-32a263.096 263.096 0 0 0 40 25.36 8.004 8.004 0 0 0 3.76.96h1.76a121.275 121.275 0 0 0 43.52-21.76v27.6c0 7.6-17.36 18.56-44.48 18.56-27.12 0-44.56-11.36-44.56-18.72zm52.48 77.6v-43.28c30.4-2.08 52.48-16 52.48-34.32v-14c30.8 6.4 128 31.44 134.56 91.68l-187.04-.08z" data-original="#000000" class="active-path" data-old_color="#fcdb5a" fill="#fcdb5a"/></svg>