<svg height="512pt" viewBox="0 0 512.004 512" width="512pt" xmlns="http://www.w3.org/2000/svg"><path d="M490.926 213.906l-6.586-4.926a22.073 22.073 0 0 1-7.082-26.425l3.242-7.559c6.586-15.379 5.566-32.508-2.797-46.992-8.367-14.488-22.687-23.938-39.3-25.918l-8.165-.977a22.068 22.068 0 0 1-19.347-19.343l-.973-8.168C407.934 56.988 398.484 42.664 384 34.3c-14.488-8.367-31.617-9.387-46.992-2.797l-7.563 3.238a22.068 22.068 0 0 1-26.425-7.082l-4.926-6.582C288.07 7.684 272.73.004 256 .004s-32.07 7.68-42.094 21.074l-4.93 6.582a22.061 22.061 0 0 1-26.425 7.082l-7.559-3.238c-15.379-6.586-32.508-5.57-46.992 2.797-14.488 8.363-23.937 22.687-25.918 39.297l-.977 8.164a22.068 22.068 0 0 1-19.347 19.347l-8.164.977c-16.61 1.98-30.934 11.43-39.297 25.918-8.367 14.484-9.383 31.613-2.797 46.992l3.238 7.559a22.068 22.068 0 0 1-7.082 26.425l-6.582 4.926C7.684 223.93 0 239.273 0 256c0 16.73 7.684 32.074 21.074 42.098l6.586 4.925a22.073 22.073 0 0 1 7.082 26.426l-3.242 7.559c-6.586 15.379-5.566 32.508 2.797 46.992 8.367 14.488 22.687 23.938 39.3 25.918l8.165.977a22.068 22.068 0 0 1 19.347 19.343l.973 8.168c1.984 16.61 11.434 30.934 25.918 39.297 14.488 8.363 31.617 9.383 46.992 2.797l7.563-3.238a22.068 22.068 0 0 1 26.425 7.082l4.926 6.582c10.024 13.394 25.367 21.078 42.098 21.078 16.726 0 32.07-7.684 42.094-21.078l4.925-6.582a22.064 22.064 0 0 1 26.43-7.078l7.559 3.234c15.375 6.586 32.504 5.57 46.992-2.793 14.484-8.367 23.934-22.691 25.918-39.3l.973-8.165a22.068 22.068 0 0 1 19.347-19.347l8.164-.973c16.61-1.984 30.938-11.434 39.301-25.918 8.363-14.488 9.383-31.617 2.793-46.996l-3.234-7.555a22.067 22.067 0 0 1 7.082-26.43l6.582-4.925c13.394-10.024 21.074-25.368 21.074-42.094-.004-16.73-7.688-32.074-21.078-42.098zm-11.985 68.18l-6.582 4.926a42.006 42.006 0 0 0-13.48 50.316l3.234 7.555c4.082 9.527 3.45 20.14-1.73 29.117-5.184 8.98-14.059 14.832-24.352 16.063l-8.164.972a42.009 42.009 0 0 0-36.832 36.836l-.976 8.164c-1.23 10.293-7.082 19.168-16.059 24.352-8.977 5.18-19.59 5.812-29.117 1.73l-7.559-3.238a42.014 42.014 0 0 0-50.316 13.484l-4.926 6.582c-6.21 8.297-15.719 13.059-26.082 13.059-10.367 0-19.875-4.762-26.086-13.059l-4.926-6.582c-8.168-10.918-20.73-16.914-33.675-16.914a42.222 42.222 0 0 0-16.637 3.43l-7.559 3.238c-9.531 4.082-20.14 3.45-29.12-1.73-8.977-5.184-14.829-14.059-16.06-24.352l-.972-8.164a42.012 42.012 0 0 0-36.836-36.832l-8.164-.977c-10.293-1.23-19.168-7.082-24.352-16.058-5.18-8.977-5.812-19.59-1.73-29.117l3.238-7.559a42.019 42.019 0 0 0-13.48-50.316l-6.586-4.926C24.758 275.875 20 266.367 20 256c0-10.363 4.758-19.871 13.059-26.082l6.582-4.926c15.62-11.691 21.168-32.383 13.48-50.316l-3.234-7.559c-4.082-9.527-3.45-20.14 1.73-29.117 5.184-8.977 14.059-14.828 24.352-16.059l8.164-.976a42.005 42.005 0 0 0 36.832-36.832l.976-8.164c1.23-10.293 7.082-19.168 16.059-24.352 8.977-5.183 19.59-5.812 29.117-1.73l7.559 3.234a42.014 42.014 0 0 0 50.316-13.48l4.926-6.582C236.128 24.762 245.637 20 256 20s19.871 4.762 26.082 13.059l4.93 6.586a42.008 42.008 0 0 0 50.312 13.48l7.559-3.238c9.527-4.082 20.14-3.45 29.117 1.73 8.977 5.184 14.832 14.059 16.059 24.352l.976 8.164a42.008 42.008 0 0 0 36.832 36.832l8.164.976c10.293 1.23 19.168 7.082 24.352 16.059 5.183 8.977 5.812 19.59 1.734 29.117l-3.238 7.559a42.012 42.012 0 0 0 13.48 50.316l6.582 4.926c8.301 6.21 13.059 15.719 13.059 26.086 0 10.363-4.758 19.871-13.059 26.082zm0 0"/><path d="M256 58.121c-30.168 0-59.137 6.617-86.098 19.668-4.972 2.406-7.05 8.387-4.648 13.356 2.406 4.972 8.39 7.05 13.36 4.644C202.835 84.066 228.87 78.121 256 78.121c98.082 0 177.879 79.797 177.879 177.883 0 98.082-79.797 177.879-177.879 177.879-98.086 0-177.883-79.797-177.883-177.88 0-40.175 13.067-78.081 37.79-109.624 3.406-4.348 2.644-10.633-1.704-14.043-4.348-3.406-10.633-2.64-14.039 1.703-27.504 35.102-42.043 77.274-42.043 121.965 0 109.11 88.77 197.879 197.879 197.879s197.879-88.77 197.879-197.88c0-109.112-88.77-197.882-197.879-197.882zm0 0"/><path d="M109.79 205.086l-7.618 9.71c-3.41 4.349-2.649 10.634 1.695 14.04 4.348 3.41 10.633 2.652 14.04-1.695l4.183-5.328v66.136h-6.695c-5.524 0-10 4.477-10 10 0 5.524 4.476 10 10 10h33.046c5.52 0 10-4.476 10-10 0-5.523-4.48-10-10-10h-6.351v-76.691c0-5.524-4.48-10-10-10h-14.434a9.994 9.994 0 0 0-7.867 3.828zm80.358 102.864h5.196c16.515 0 29.949-13.434 29.949-29.95v-48.473c0-16.515-13.438-29.953-29.95-29.953h-5.195c-16.515 0-29.949 13.438-29.949 29.953V278c0 16.516 13.434 29.95 29.95 29.95zm-9.949-78.423c0-5.488 4.465-9.953 9.95-9.953h5.195c5.484 0 9.949 4.465 9.949 9.953V278c0 5.484-4.465 9.95-9.95 9.95h-5.195c-5.484 0-9.949-4.466-9.949-9.95zm90.539 78.423c16.516 0 29.95-13.434 29.95-29.95v-48.473c0-16.515-13.438-29.953-29.95-29.953h-5.195c-16.516 0-29.95 13.438-29.95 29.953V278c0 16.516 13.434 29.95 29.95 29.95zM255.594 278v-48.473c0-5.488 4.465-9.953 9.949-9.953h5.195c5.485 0 9.95 4.465 9.95 9.953V278c0 5.484-4.465 9.95-9.95 9.95h-5.195c-5.484 0-9.95-4.462-9.95-9.95zM402.8 198.36c-4.464-3.247-10.718-2.258-13.968 2.206l-63.539 87.38c-3.25 4.468-2.262 10.722 2.207 13.968a9.992 9.992 0 0 0 13.969-2.207l63.539-87.379c3.25-4.465 2.258-10.719-2.207-13.969zm-236.87-38.083a9.967 9.967 0 0 0 6.57-2.464 126.905 126.905 0 0 1 83.5-31.305c28.75 0 55.863 9.367 78.41 27.086 4.344 3.414 10.63 2.66 14.043-1.684 3.41-4.34 2.656-10.629-1.683-14.039-26.11-20.52-57.497-31.363-90.77-31.363a146.905 146.905 0 0 0-96.652 36.238c-4.16 3.633-4.59 9.95-.957 14.11a9.972 9.972 0 0 0 7.539 3.421zm-1.84 208.899c26.101 20.515 57.492 31.36 90.765 31.36 23.086 0 45.188-5.204 65.696-15.462 4.937-2.469 6.937-8.476 4.469-13.418-2.473-4.937-8.477-6.937-13.418-4.469-17.704 8.86-36.797 13.348-56.747 13.348-28.746 0-55.863-9.363-78.41-27.086-4.34-3.41-10.629-2.656-14.039 1.684a9.999 9.999 0 0 0 1.684 14.043zM354.2 352.07c-2.212-3.312-6.352-5.03-10.262-4.25-4.149.832-7.415 4.301-7.965 8.5-.54 4.078 1.578 8.184 5.203 10.121 3.64 1.95 8.219 1.414 11.324-1.308 3.734-3.285 4.398-8.934 1.7-13.063zm-16.977-155.62c-12.977 0-23.536 10.554-23.536 23.53 0 12.977 10.56 23.536 23.536 23.536 12.972 0 23.53-10.559 23.53-23.536 0-12.976-10.558-23.53-23.53-23.53zm0 27.066c-1.95 0-3.536-1.586-3.536-3.536s1.586-3.535 3.536-3.535a3.536 3.536 0 0 1 0 7.07zm31.968 57.41c0 12.976 10.559 23.535 23.532 23.535 12.976 0 23.535-10.559 23.535-23.535 0-12.977-10.559-23.535-23.535-23.535-12.973 0-23.532 10.558-23.532 23.535zm27.067 0a3.536 3.536 0 0 1-3.531 3.535c-1.95 0-3.536-1.586-3.536-3.535s1.586-3.535 3.536-3.535a3.536 3.536 0 0 1 3.53 3.535zM129.473 113.453c1.609 3.863 5.539 6.356 9.718 6.16 4.125-.195 7.75-3.015 9.024-6.93 1.285-3.953-.113-8.468-3.426-10.988-3.379-2.57-8.098-2.718-11.637-.379-3.945 2.606-5.46 7.79-3.68 12.137zm0 0"/></svg>