<svg xmlns="http://www.w3.org/2000/svg" viewBox="0 0 512 512"><path d="M133.565 150.261h244.87v22.261h-244.87zm222.609 33.391h22.261v22.261h-22.261zm-222.609 0h22.261v22.261h-22.261zM244.87 77.913h22.261v22.261H244.87zm33.391 0h22.261v22.261h-22.261zm-66.783 0h22.261v22.261h-22.261zm-33.391 0h22.261v22.261h-22.261zm133.565 0h22.261v22.261h-22.261z"/><path d="M459.458 479.918c-9.766 5.209-18.233 9.708-35.892 9.812l65.603-196.819a11.132 11.132 0 0 0-5.992-13.669l-60.22-27.098V144.696c0-18.412-14.979-33.391-33.391-33.391H372.87V55.652c0-6.147-4.983-11.13-11.13-11.13h-94.61V0h-22.26v44.522h-94.609c-6.147 0-11.13 4.983-11.13 11.13v55.652h-16.696c-18.412 0-33.391 14.979-33.391 33.391v107.441l-60.221 27.105a11.128 11.128 0 0 0-5.99 13.669l65.603 196.818c-17.66-.104-26.126-4.602-35.892-9.811-10.933-5.83-23.325-12.439-46.977-12.439v22.261c18.087 0 26.621 4.551 36.501 9.821C53 505.391 65.391 512 89.044 512c6.261 0 11.602-.414 16.322-1.263 13.658-2.149 22.685-6.958 30.651-11.203 9.864-5.256 18.382-9.795 36.398-9.795 18.087 0 26.62 4.551 36.501 9.821 10.932 5.831 23.324 12.44 46.976 12.44s36.044-6.609 46.977-12.439c9.88-5.27 18.414-9.821 36.501-9.821 18.079 0 26.624 4.539 36.518 9.796 7.991 4.244 17.043 9.053 30.75 11.202 4.718.85 10.057 1.263 16.318 1.263 23.652 0 36.044-6.609 46.977-12.439 9.881-5.27 18.414-9.821 36.501-9.821V467.48c-23.651-.002-36.043 6.607-46.976 12.438zm5.411-184.505l-7.981 23.943-189.758-87.187v-25.738l197.739 88.982zM161.391 66.783h189.217v44.522H161.391V66.783zm-50.087 77.913c0-6.137 4.993-11.13 11.13-11.13h267.13c6.137 0 11.13 4.993 11.13 11.13v97.429l-140.129-63.057a11.12 11.12 0 0 0-9.135 0L111.302 242.12v-97.424zM47.132 295.413l197.738-88.981v25.738L55.112 319.356l-7.98-23.943zm354.004 191.209c-5.407-1.759-9.886-4.132-14.806-6.745-10.938-5.811-23.337-12.398-46.961-12.398-23.652 0-36.044 6.609-46.977 12.439-9.882 5.27-18.414 9.822-36.501 9.822s-26.621-4.551-36.501-9.822c-10.932-5.83-23.325-12.439-46.977-12.439-23.576 0-35.949 6.593-46.865 12.409-4.884 2.602-9.332 4.965-14.689 6.719L62.192 340.6l182.677-83.932v132.897h22.261V256.668l182.677 83.933-48.671 146.021z"/></svg>